<svg width="503" height="500" viewBox="0 0 503 500" fill="none" xmlns="http://www.w3.org/2000/svg">
<circle cx="252" cy="250" r="250" fill="white"/>
<ellipse cx="251.275" cy="248.555" rx="246.377" ry="245.665" fill="#FFDB0C"/>
<g filter="url(#filter0_d_2047_2)">
<path d="M10.9209 293.32C-6.67753 209.969 32.1759 108.174 70.8922 90.6268C114.835 70.7104 155.151 137.598 135.848 163.21C157.438 154.314 195.65 147.106 216.078 182.751C244.236 231.884 207.279 264.639 185.281 274.875C205.813 273.413 253.915 261.715 282.072 226.62C310.229 191.525 320.202 153.505 321.668 138.882C320.202 172.515 320.789 243.29 334.867 257.328C352.466 274.875 387.662 200.298 392.062 169.59C395.581 145.024 390.595 109.637 387.662 95.0136C400.861 153.505 429.898 270.488 440.457 270.488C453.656 270.488 480.053 226.62 484.453 213.459C487.973 202.931 488.853 188.6 488.853 182.751C515.172 293.866 472.291 474.488 265.51 492.035C162.12 500.809 32.9187 424.926 10.9209 293.32Z" fill="black"/>
<path d="M10.9209 293.32C-6.67753 209.969 32.1759 108.174 70.8922 90.6268C119.288 68.6925 163.283 152.043 128.087 169.59C92.8899 187.138 180.882 121.335 216.078 182.751C244.236 231.884 207.279 264.639 185.281 274.875C205.813 273.413 253.915 261.715 282.072 226.62C310.229 191.525 320.202 153.505 321.668 138.882C320.202 172.515 320.789 243.29 334.867 257.328C352.466 274.875 387.662 200.298 392.062 169.59C395.581 145.024 390.595 109.637 387.662 95.0136C400.861 153.505 429.898 270.488 440.457 270.488C453.656 270.488 480.053 226.62 484.453 213.459C487.973 202.931 488.853 188.6 488.853 182.751C515.172 293.866 472.291 474.488 265.51 492.035C162.12 500.809 32.9187 424.926 10.9209 293.32Z" stroke="white" stroke-width="5"/>
</g>
<defs>
<filter id="filter0_d_2047_2" x="0.0619507" y="79.4636" width="502.248" height="418.757" filterUnits="userSpaceOnUse" color-interpolation-filters="sRGB">
<feFlood flood-opacity="0" result="BackgroundImageFix"/>
<feColorMatrix in="SourceAlpha" type="matrix" values="0 0 0 0 0 0 0 0 0 0 0 0 0 0 0 0 0 0 127 0" result="hardAlpha"/>
<feOffset dy="-1"/>
<feGaussianBlur stdDeviation="2"/>
<feComposite in2="hardAlpha" operator="out"/>
<feColorMatrix type="matrix" values="0 0 0 0 0 0 0 0 0 0 0 0 0 0 0 0 0 0 0.25 0"/>
<feBlend mode="normal" in2="BackgroundImageFix" result="effect1_dropShadow_2047_2"/>
<feBlend mode="normal" in="SourceGraphic" in2="effect1_dropShadow_2047_2" result="shape"/>
</filter>
</defs>
</svg>
