<svg width="385" height="630" viewBox="0 0 385 630" fill="none" xmlns="http://www.w3.org/2000/svg">
<path d="M21 550.679V629.5H381V550.679L201.5 478L21 550.679Z" fill="#FFDB0C"/>
<path d="M385 225L201.5 482C188 464.333 167.5 423.5 183 343C194.151 285.085 53.0712 325.914 9.99999 257C-30 193 70 52 84.5 31C112.464 -9.5 92 -56.1667 78 -69C98.5 -65.1667 153.5 -50 167.5 -9.5C177.329 18.9324 179 68 167.5 83C156 98 113 217.5 167.5 225C222 232.5 268 162.5 293.5 122C313.9 89.6 310 10.8333 305.5 -24.5L385 225Z" fill="#FFDB0C"/>
</svg>
